# xmcd
#
# Track frame offsets:
#	154
#	20481
#	41777
#	61032
#	82499
#	103822
#	125198
#	142436
#	159603
#	178960
#
# Disc length: 2656 seconds
#
# Revision: 0
# Processed by: cddbd v1.5.2PL0 Copyright (c) Steve Scherf et al.
# Submitted via: EasyCDDAExtractor 12.0.1.1
#
DISCID=9f0a5e0a
DTITLE=Carl Marshall - You Can't Stop A Woman
DYEAR=1900
DGENRE=R&B
TTITLE0=You Can't Stop A Woman
TTITLE1=How Sweet It Is To Be Loved By You
TTITLE2=I'm Ready For The Rain
TTITLE3=Uncle Bo Bo (Rude Your Mule)
TTITLE4=I'm In A Fix
TTITLE5=When A Man Loves A Woman
TTITLE6=Nothing I Can Do
TTITLE7=Let It Go
TTITLE8=Zydeco Lady
TTITLE9=Living in LOVE
EXTD=
EXTT0=
EXTT1=
EXTT2=
EXTT3=
EXTT4=
EXTT5=
EXTT6=
EXTT7=
EXTT8=
EXTT9=
PLAYORDER=
